<?xml version="1.0" encoding="utf-8"?>
<!-- Generator: Adobe Illustrator 27.5.0, SVG Export Plug-In . SVG Version: 6.00 Build 0)  -->
<svg version="1.1" id="Layer_1" xmlns="http://www.w3.org/2000/svg" xmlns:xlink="http://www.w3.org/1999/xlink" x="0px" y="0px"
	 viewBox="0 0 228.689 103.688" style="enable-background:new 0 0 228.689 103.688;" xml:space="preserve">
<g>
	<g>
		<path d="M221.181,6.998c-0.833-0.716-1.895-1.256-3.157-1.605c-1.223-0.337-2.371-0.432-3.414-0.288
			c-0.741,0.104-1.435,0.36-2.062,0.761c-0.079,0.051-0.156,0.105-0.231,0.162c-0.894,0.683-1.299,1.47-2.277,4.43
			c-0.597,1.807-1.151,3.729-1.646,5.711c-0.427,1.697-1.305,5.831-2.686,12.64c-1.001,4.942-1.823,9.123-2.447,12.458
			c-0.494-0.101-0.965-0.117-1.433-0.05c-1.375,0.193-2.029,0.877-4.083,3.22c-0.801,0.914-1.647,1.767-2.519,2.542
			c-0.153-0.596-0.349-1.157-0.588-1.681c-0.807-1.793-2.247-3.205-4.281-4.198c-1.904-0.928-3.894-1.271-5.932-1.016l-0.194,0.027
			c-1.226,0.172-2.506,0.686-3.919,1.576c-0.384,0.246-0.77,0.519-1.156,0.819c-0.486-0.75-1.276-1.532-2.554-2.199
			c-1.552-0.81-3.206-1.164-4.917-1.057l-1.203,0.072c-0.958,0.057-1.85,0.522-2.445,1.275l-0.733,0.93
			c-1.665,2.014-3.176,4.84-4.616,8.641c-0.519,0.923-0.993,1.763-1.407,2.495c-2.238,3.933-4.609,7.564-7.046,10.791
			c-1.273,1.685-2.256,2.858-3.005,3.674c0.166-1.875,0.62-3.951,1.353-6.181c0.859-2.617,2.224-5.858,4.054-9.63
			c1.453-2.972,1.709-3.925,1.709-4.828c0-0.437-0.062-0.87-0.182-1.288c0.172-0.121,0.332-0.255,0.478-0.401
			c0.756-0.708,1.187-1.623,1.256-2.66c0.119-0.237,0.353-0.666,0.793-1.367c0.932-1.483,1.553-2.215,1.903-2.562
			c0.891-0.866,1.801-1.956,1.801-3.47c0-0.515-0.107-0.914-0.27-1.463c-0.025-0.084-0.053-0.167-0.083-0.245
			c-0.38-0.991-1.079-1.915-2.137-2.826c-0.958-0.824-1.978-1.414-3.044-1.758c-1.159-0.357-1.982-0.466-2.749-0.358
			c-0.005,0-0.01,0.001-0.015,0.002c-0.879,0.124-1.716,0.513-2.401,1.109c-0.848,0.706-1.373,1.521-1.561,2.425
			c-0.083,0.23-0.311,0.832-0.907,2.307c-1.443,3.592-1.641,4.901-1.641,5.78c0,0.356,0.043,0.751,0.12,1.118
			c0.014,0.075,0.029,0.15,0.046,0.225c-0.851,0.151-1.572,0.435-2.201,0.867c-0.657,0.458-1.193,1.128-2.046,2.562
			c-0.575,0.968-1.11,1.98-1.594,3.015c-0.691,1.497-1.365,3.262-2.003,5.249c-0.658,0.725-1.226,1.321-1.7,1.782
			c-0.001-0.011-0.003-0.022-0.004-0.033c-0.47-3.725-0.886-5.083-1.374-5.991c-0.665-1.195-1.634-2.14-2.881-2.809
			c-1.315-0.705-2.675-0.966-4.047-0.773c-0.97,0.136-1.764,0.434-2.428,0.911c-0.386,0.278-0.824,0.676-1.688,1.696
			c-0.456,0.52-0.999,1.246-1.643,2.196c-0.534-1.095-1.475-2.078-2.817-2.939c-1.886-1.209-3.717-1.697-5.444-1.455
			c-1.478,0.208-2.688,0.994-3.408,2.212c-1.316,2.221-2.438,5.059-3.349,8.442c0.631-3.391,1.428-7.024,2.398-10.891
			c2.035-8.107,4.363-15.442,6.921-21.806l0.669-1.683c0.462-0.085,1.367-0.234,3.107-0.479c8.457-1.188,11.467-1.437,12.493-1.437
			h0.102c3.878,0,5.846,0.449,6.827,0.831c1.09,0.409,1.873,0.666,2.835,0.537c0.895-0.129,1.718-0.597,2.378-1.352
			c0.708-0.806,1.068-1.686,1.068-2.617c0-0.663-0.169-1.326-0.504-1.999c-0.81-1.762-2.486-3.088-5.125-4.054
			c-2.037-0.745-4.506-1.206-7.34-1.369c-2.316-0.134-4.52-0.133-6.547,0.002c-1.996,0.132-5.08,0.483-9.435,1.072l-1.3,0.183
			c-7.104,0.998-13.433,2.292-18.812,3.849c-5.685,1.644-10.231,3.894-13.513,6.689c-2.394,2.042-3.558,4.033-3.558,6.087
			c0,1.066,0.319,2.095,0.926,2.98c0.548,0.79,1.296,1.46,2.224,1.989c1.167,0.665,2.255,0.912,3.327,0.763
			c1.011-0.143,1.939-0.646,3.426-1.859c2.168-1.782,5.063-3.4,8.608-4.809c0.735-0.294,1.705-0.639,2.897-1.032
			c-1.156,3.878-2.26,8.396-3.29,13.46c-1.189,5.844-2.005,11.021-2.427,15.39c-0.463,4.914-0.698,10.546-0.698,16.74
			c0,2.761,0.069,4.796,0.211,6.221c0.168,1.706,0.423,2.92,0.804,3.82c0.632,1.491,1.789,2.551,3.262,2.984l0.138,0.037
			c0.498,0.123,1.02,0.186,1.552,0.186c0.33,0,0.666-0.024,1.001-0.071l0.161-0.023c0.082-0.012,0.164-0.026,0.245-0.044
			c0.542-0.118,1.177-0.296,1.782-0.726c0.967-0.693,1.522-1.793,1.522-3.018c0-0.105-0.004-0.294-0.044-0.565
			c-0.004-0.049-0.009-0.099-0.016-0.15c-0.012-0.091-0.071-0.664-0.071-2.941c0-1.268,0.011-2.468,0.032-3.613
			c0.189,2.023,0.533,3.655,1.039,4.932c1.088,2.748,3.16,4.473,5.797,4.852c0.592,0.105,1.212,0.116,1.841,0.029
			c1.127-0.159,2.73-0.794,3.959-2.918c0.562-0.969,1.237-2.586,2.123-5.08c2.351-6.488,4.839-11.811,7.408-15.862
			c0.094,0.173,0.188,0.329,0.283,0.467c0.935,1.45,2.2,2.614,3.76,3.462c1.344,0.729,2.731,1.126,4.137,1.182
			c-0.009,0.378-0.014,0.765-0.014,1.158c0,2.351,0.12,3.964,0.378,5.071c0.497,2.166,1.387,3.867,2.648,5.058
			c1.37,1.292,3.175,2,5.348,2.101c0.546,0.034,1.125,0.008,1.713-0.076c1.67-0.234,3.42-0.954,5.201-2.138
			c0.825-0.548,1.763-1.37,2.843-2.493c-0.29,3.321-0.512,7.076-0.661,11.208c-0.046,1.021-0.068,2.553-0.068,4.682
			c0,6.263,0.252,8.036,0.531,9.043c0.42,1.402,1.546,2.458,3.09,2.899c0.571,0.162,1.173,0.244,1.791,0.244
			c0.336,0,0.682-0.024,1.03-0.073c0.94-0.132,1.792-0.418,2.436-0.811c1.144-0.652,1.932-1.759,2.217-3.117
			c0.081-0.385,0.212-1.214,0.571-4.441c0.61-5.466,1.728-10.996,3.326-16.442c1.456,0.574,3.155,0.78,5.074,0.613
			c0.056-0.006,0.113-0.012,0.17-0.02l0.617-0.087c1.812-0.254,3.443-0.85,4.845-1.771c1.252-0.822,2.652-2.124,4.279-3.979
			c2.785-3.177,4.971-6.782,6.498-10.717l0.327-0.849l1.584-1.045c2.199-1.429,4.098-2.819,5.743-4.206
			c-0.104,1.032-0.155,1.869-0.155,2.529v1.463c0,0.489,0.106,0.965,0.304,1.4c-0.82,0.602-1.331,1.553-1.375,2.574l-0.13,3.043
			c-0.023,0.541-0.036,1.198-0.036,1.971c0,1.429,0.183,3.035,1.54,4.12c0.734,0.588,1.624,0.874,2.721,0.874
			c0.36,0,0.743-0.03,1.207-0.095c1.803-0.253,3.132-0.992,3.949-2.196c0.453-0.669,0.866-1.624,1.408-4.105
			c0.669-2.955,0.669-3.264,0.669-3.656c0-0.383-0.078-1.49-0.894-2.478c0.481-0.849,0.725-1.973,0.957-3.567
			c0.589-4.143,2.002-10.813,4.199-19.824c1.441-5.926,3.007-11.318,4.653-16.024c2.52-7.168,2.728-8.557,2.728-9.443
			C222.972,9.733,222.661,8.271,221.181,6.998z"/>
		<path d="M47.613,49.815c-2.739-2.739-6.075-4.128-9.916-4.128c-3.865,0-7.22,1.372-9.97,4.077
			c-1.936,1.895-3.192,4.083-3.786,6.522c0.02-0.267,0.031-0.538,0.031-0.813c0-2.846-1.102-5.29-3.191-7.072
			c-1.852-1.566-4.488-2.328-8.059-2.328H9.089c-1.859,0-3.372,1.512-3.372,3.372v20.547c0,1.859,1.512,3.372,3.372,3.372h3.1
			c1.437,0,2.668-0.904,3.152-2.174l0.511,0.732c0.63,0.903,1.664,1.442,2.765,1.442h3.793c1.274,0,2.425-0.705,3.004-1.841
			c0.579-1.136,0.473-2.481-0.276-3.512l-4.107-5.654c0.341-0.315,0.661-0.659,0.956-1.029c0.762-0.957,1.3-2.022,1.624-3.18
			c-0.049,0.484-0.076,0.976-0.076,1.478c0,4.292,1.562,7.834,4.646,10.529c2.733,2.377,5.882,3.582,9.359,3.582
			c3.895,0,7.27-1.365,10.032-4.058c2.777-2.708,4.185-6.049,4.185-9.933C51.755,55.892,50.36,52.55,47.613,49.815z M41.884,59.718
			c0,1.273-0.395,2.269-1.244,3.134c-0.853,0.857-1.797,1.24-3.063,1.24c-1.105,0-2.033-0.399-2.923-1.258
			c-0.854-0.818-1.251-1.825-1.251-3.169c0-1.263,0.391-2.242,1.237-3.087c0.843-0.853,1.773-1.234,3.017-1.234
			c1.245,0,2.17,0.379,3.005,1.234C41.496,57.422,41.884,58.42,41.884,59.718z"/>
		<path d="M66.121,46.772c-0.539-1.2-1.737-1.981-3.076-1.99c-1.306,0-2.505,0.765-3.057,1.949L49.822,68.568
			c-0.489,1.05-0.409,2.259,0.213,3.235c0.622,0.976,1.685,1.559,2.843,1.559h3.34c1.313,0,2.517-0.772,3.065-1.966l1.387-3.024
			h4.417l1.277,2.956c0.534,1.236,1.749,2.035,3.095,2.035h3.393c1.149,0,2.207-0.576,2.83-1.54
			c0.624-0.964,0.716-2.165,0.245-3.213L66.121,46.772z"/>
		<path d="M90.124,46.86c-1.563-0.529-3.516-0.787-5.969-0.787h-4.312c-1.859,0-3.372,1.512-3.372,3.372v20.547
			c0,1.859,1.512,3.372,3.372,3.372h4.258c2.477,0,4.394-0.24,5.84-0.727c1.66-0.521,3.245-1.437,4.711-2.727
			c2.955-2.611,4.452-6.04,4.452-10.192c0-4.121-1.439-7.524-4.276-10.113C93.419,48.317,91.837,47.393,90.124,46.86z
			 M86.315,63.545v-7.63c0.753,0.162,1.341,0.43,1.732,0.79c0.821,0.763,1.186,1.692,1.186,3.013c0,1.291-0.365,2.199-1.179,2.943
			c-0.396,0.359-0.826,0.618-1.259,0.764C86.65,63.47,86.49,63.51,86.315,63.545z"/>
	</g>
	<g>
		<path d="M221.181,4.55c-0.833-0.716-1.895-1.256-3.157-1.605c-1.223-0.337-2.371-0.432-3.414-0.288
			c-0.741,0.104-1.435,0.36-2.062,0.761c-0.079,0.051-0.156,0.105-0.231,0.162c-0.894,0.683-1.299,1.469-2.277,4.43
			c-0.597,1.807-1.151,3.729-1.646,5.711c-0.427,1.697-1.305,5.832-2.686,12.64c-1.001,4.941-1.823,9.123-2.447,12.458
			c-0.494-0.101-0.965-0.117-1.433-0.051c-1.375,0.193-2.029,0.877-4.083,3.22c-0.801,0.914-1.647,1.767-2.519,2.542
			c-0.153-0.596-0.349-1.158-0.588-1.681c-0.807-1.793-2.247-3.206-4.281-4.198c-1.904-0.928-3.894-1.271-5.932-1.016l-0.194,0.027
			c-1.226,0.172-2.506,0.686-3.919,1.576c-0.384,0.246-0.77,0.52-1.156,0.819c-0.486-0.75-1.276-1.532-2.554-2.199
			c-1.552-0.81-3.206-1.164-4.917-1.057l-1.203,0.072c-0.958,0.057-1.85,0.522-2.445,1.275l-0.733,0.93
			c-1.665,2.014-3.176,4.84-4.616,8.641c-0.519,0.923-0.993,1.763-1.407,2.495c-2.238,3.933-4.609,7.564-7.046,10.791
			c-1.273,1.686-2.256,2.858-3.005,3.674c0.166-1.875,0.62-3.951,1.353-6.181c0.859-2.617,2.224-5.858,4.054-9.63
			c1.453-2.972,1.709-3.925,1.709-4.828c0-0.437-0.062-0.87-0.182-1.288c0.172-0.121,0.332-0.255,0.478-0.401
			c0.756-0.708,1.187-1.623,1.256-2.66c0.119-0.237,0.353-0.666,0.793-1.367c0.932-1.483,1.553-2.215,1.903-2.562
			c0.891-0.866,1.801-1.956,1.801-3.47c0-0.516-0.107-0.914-0.27-1.463c-0.025-0.084-0.053-0.167-0.083-0.245
			c-0.38-0.991-1.079-1.916-2.137-2.826c-0.958-0.824-1.978-1.414-3.044-1.758c-1.159-0.357-1.982-0.466-2.749-0.358
			c-0.005,0-0.01,0.001-0.015,0.002c-0.879,0.124-1.716,0.513-2.401,1.108c-0.848,0.706-1.373,1.521-1.561,2.425
			c-0.083,0.23-0.311,0.832-0.907,2.307c-1.443,3.592-1.641,4.9-1.641,5.779c0,0.356,0.043,0.751,0.12,1.118
			c0.014,0.075,0.029,0.15,0.046,0.225c-0.851,0.151-1.572,0.435-2.201,0.867c-0.657,0.458-1.193,1.128-2.046,2.562
			c-0.575,0.968-1.11,1.98-1.594,3.015c-0.691,1.497-1.365,3.262-2.003,5.249c-0.658,0.725-1.226,1.321-1.7,1.782
			c-0.001-0.011-0.003-0.022-0.004-0.033c-0.47-3.725-0.886-5.083-1.374-5.991c-0.665-1.195-1.634-2.14-2.881-2.809
			c-1.315-0.705-2.675-0.967-4.047-0.773c-0.97,0.136-1.764,0.434-2.428,0.911c-0.386,0.278-0.824,0.676-1.688,1.696
			c-0.456,0.52-0.999,1.246-1.643,2.196c-0.534-1.095-1.475-2.078-2.817-2.939c-1.886-1.209-3.717-1.697-5.444-1.455
			c-1.478,0.208-2.688,0.994-3.408,2.212c-1.316,2.22-2.438,5.058-3.349,8.442c0.631-3.391,1.428-7.024,2.398-10.891
			c2.035-8.107,4.363-15.443,6.921-21.806l0.669-1.683c0.462-0.085,1.367-0.234,3.107-0.479c8.457-1.188,11.467-1.437,12.493-1.437
			h0.102c3.878,0,5.846,0.449,6.827,0.831c1.09,0.409,1.873,0.666,2.835,0.537c0.895-0.129,1.718-0.597,2.378-1.352
			c0.708-0.806,1.068-1.686,1.068-2.616c0-0.663-0.169-1.326-0.504-1.999c-0.81-1.762-2.486-3.088-5.125-4.054
			c-2.037-0.745-4.506-1.205-7.34-1.369c-2.316-0.134-4.52-0.133-6.547,0.002c-1.996,0.132-5.08,0.483-9.435,1.072l-1.3,0.183
			c-7.104,0.998-13.433,2.292-18.812,3.849c-5.685,1.644-10.231,3.894-13.513,6.689c-2.394,2.042-3.558,4.033-3.558,6.087
			c0,1.066,0.319,2.095,0.926,2.981c0.548,0.79,1.296,1.46,2.224,1.99c1.167,0.665,2.255,0.912,3.327,0.763
			c1.011-0.143,1.939-0.646,3.426-1.859c2.168-1.782,5.063-3.4,8.608-4.809c0.735-0.294,1.705-0.639,2.897-1.032
			c-1.156,3.878-2.26,8.396-3.29,13.46c-1.189,5.844-2.005,11.021-2.427,15.39c-0.463,4.914-0.698,10.547-0.698,16.74
			c0,2.761,0.069,4.796,0.211,6.221c0.168,1.706,0.423,2.92,0.804,3.82c0.632,1.491,1.789,2.551,3.262,2.984l0.138,0.037
			c0.498,0.123,1.02,0.186,1.552,0.186c0.33,0,0.666-0.024,1.001-0.071l0.161-0.023c0.082-0.012,0.164-0.026,0.245-0.044
			c0.542-0.118,1.177-0.296,1.782-0.726c0.967-0.693,1.522-1.793,1.522-3.017c0-0.105-0.004-0.294-0.044-0.566
			c-0.004-0.049-0.009-0.098-0.016-0.15c-0.012-0.091-0.071-0.664-0.071-2.941c0-1.268,0.011-2.468,0.032-3.613
			c0.189,2.023,0.533,3.655,1.039,4.932c1.088,2.748,3.16,4.473,5.797,4.852c0.592,0.105,1.212,0.116,1.841,0.029
			c1.127-0.159,2.73-0.794,3.959-2.918c0.562-0.969,1.237-2.586,2.123-5.08c2.351-6.488,4.839-11.811,7.408-15.862
			c0.094,0.173,0.188,0.329,0.283,0.468c0.935,1.449,2.2,2.614,3.76,3.462c1.344,0.729,2.731,1.126,4.137,1.182
			c-0.009,0.378-0.014,0.765-0.014,1.158c0,2.351,0.12,3.964,0.378,5.071c0.497,2.166,1.387,3.867,2.648,5.058
			c1.37,1.293,3.175,2,5.348,2.101c0.546,0.034,1.125,0.008,1.713-0.076c1.67-0.235,3.42-0.954,5.201-2.138
			c0.825-0.548,1.763-1.37,2.843-2.492c-0.29,3.321-0.512,7.076-0.661,11.208c-0.046,1.021-0.068,2.552-0.068,4.682
			c0,6.263,0.252,8.036,0.531,9.042c0.42,1.402,1.546,2.459,3.09,2.899c0.571,0.162,1.173,0.244,1.791,0.244
			c0.336,0,0.682-0.024,1.03-0.073c0.94-0.132,1.792-0.418,2.436-0.811c1.144-0.651,1.932-1.759,2.217-3.117
			c0.081-0.385,0.212-1.214,0.571-4.441c0.61-5.466,1.728-10.996,3.326-16.442c1.456,0.574,3.155,0.78,5.074,0.613
			c0.056-0.006,0.113-0.012,0.17-0.02l0.617-0.087c1.812-0.254,3.443-0.85,4.845-1.771c1.252-0.822,2.652-2.124,4.279-3.979
			c2.785-3.177,4.971-6.782,6.498-10.717l0.327-0.849l1.584-1.045c2.199-1.429,4.098-2.819,5.743-4.206
			c-0.104,1.032-0.155,1.869-0.155,2.529v1.463c0,0.489,0.106,0.965,0.304,1.4c-0.82,0.602-1.331,1.553-1.375,2.574l-0.13,3.043
			c-0.023,0.541-0.036,1.198-0.036,1.971c0,1.429,0.183,3.035,1.54,4.12c0.734,0.588,1.624,0.874,2.721,0.874
			c0.36,0,0.743-0.03,1.207-0.096c1.803-0.253,3.132-0.992,3.949-2.196c0.453-0.669,0.866-1.624,1.408-4.105
			c0.669-2.955,0.669-3.264,0.669-3.656c0-0.383-0.078-1.49-0.894-2.478c0.481-0.849,0.725-1.973,0.957-3.567
			c0.589-4.144,2.002-10.813,4.199-19.824c1.441-5.926,3.007-11.318,4.653-16.024c2.52-7.168,2.728-8.557,2.728-9.443
			C222.972,7.286,222.661,5.823,221.181,4.55z"/>
		<path d="M47.613,47.367c-2.739-2.74-6.075-4.129-9.916-4.129c-3.865,0-7.22,1.372-9.97,4.076
			c-1.936,1.895-3.192,4.083-3.786,6.522c0.02-0.267,0.031-0.538,0.031-0.813c0-2.846-1.102-5.29-3.191-7.072
			c-1.852-1.567-4.488-2.328-8.059-2.328H9.089c-1.859,0-3.372,1.512-3.372,3.372v20.547c0,1.859,1.512,3.372,3.372,3.372h3.1
			c1.437,0,2.668-0.904,3.152-2.174l0.511,0.732c0.63,0.903,1.664,1.442,2.765,1.442h3.793c1.274,0,2.425-0.705,3.004-1.841
			c0.579-1.136,0.473-2.481-0.276-3.512l-4.107-5.654c0.341-0.315,0.661-0.659,0.956-1.029c0.762-0.957,1.3-2.022,1.624-3.18
			c-0.049,0.484-0.076,0.976-0.076,1.478c0,4.292,1.562,7.834,4.646,10.529c2.733,2.377,5.882,3.582,9.359,3.582
			c3.895,0,7.27-1.365,10.032-4.058c2.777-2.708,4.185-6.049,4.185-9.933C51.755,53.444,50.36,50.102,47.613,47.367z M41.884,57.27
			c0,1.273-0.395,2.269-1.244,3.134c-0.853,0.857-1.797,1.239-3.063,1.239c-1.105,0-2.033-0.399-2.923-1.258
			c-0.854-0.818-1.251-1.825-1.251-3.169c0-1.263,0.391-2.242,1.237-3.087c0.843-0.853,1.773-1.234,3.017-1.234
			c1.245,0,2.17,0.379,3.005,1.234C41.496,54.974,41.884,55.972,41.884,57.27z"/>
		<path d="M66.121,44.324c-0.539-1.2-1.737-1.981-3.076-1.99c-1.306,0-2.505,0.765-3.057,1.948L49.822,66.12
			c-0.489,1.05-0.409,2.259,0.213,3.235c0.622,0.976,1.685,1.559,2.843,1.559h3.34c1.313,0,2.517-0.771,3.065-1.966l1.387-3.024
			h4.417l1.277,2.956c0.534,1.236,1.749,2.035,3.095,2.035h3.393c1.149,0,2.207-0.576,2.83-1.54
			c0.624-0.964,0.716-2.165,0.245-3.213L66.121,44.324z"/>
		<path d="M90.124,44.412c-1.563-0.529-3.516-0.787-5.969-0.787h-4.312c-1.859,0-3.372,1.512-3.372,3.372v20.547
			c0,1.859,1.512,3.372,3.372,3.372h4.258c2.477,0,4.394-0.24,5.84-0.727c1.66-0.521,3.245-1.437,4.711-2.727
			c2.955-2.611,4.452-6.04,4.452-10.192c0-4.121-1.439-7.524-4.276-10.113C93.419,45.868,91.837,44.945,90.124,44.412z
			 M86.315,61.097v-7.63c0.753,0.163,1.341,0.43,1.732,0.79c0.821,0.763,1.186,1.692,1.186,3.013c0,1.291-0.365,2.199-1.179,2.943
			c-0.396,0.359-0.826,0.618-1.259,0.764C86.65,61.022,86.49,61.062,86.315,61.097z"/>
	</g>
	<g>
		<path style="fill:#FFFFFF;" d="M112.175,42.118c2.047-8.157,4.39-15.538,6.967-21.948l0.89-2.238l0.081-0.022
			c0.185-0.05,0.915-0.209,3.694-0.6c8.497-1.194,11.57-1.448,12.66-1.448c0.033,0,0.062,0.001,0.092,0
			c4.051,0,6.149,0.485,7.222,0.903c1.087,0.408,1.641,0.564,2.28,0.477c0.634-0.091,1.205-0.423,1.694-0.982
			c0.195-0.222,0.788-0.896,0.788-1.874c0-0.491-0.136-0.995-0.401-1.529c-0.679-1.476-2.147-2.61-4.49-3.468
			c-1.934-0.708-4.295-1.146-7.018-1.302c-2.273-0.131-4.43-0.13-6.408,0.001c-1.965,0.13-5.021,0.477-9.353,1.064l-1.301,0.183
			c-7.052,0.99-13.328,2.274-18.656,3.815c-5.53,1.599-9.936,3.774-13.096,6.465c-2.129,1.815-3.163,3.527-3.163,5.232
			c0,0.838,0.249,1.645,0.725,2.34c0.451,0.652,1.076,1.207,1.857,1.653c0.94,0.536,1.795,0.742,2.614,0.626
			c0.785-0.111,1.561-0.547,2.87-1.614c2.258-1.856,5.253-3.533,8.905-4.985c1.107-0.443,2.731-0.998,4.826-1.651
			c0.066-0.021,0.131-0.041,0.195-0.061c-0.03,0.099-0.062,0.2-0.094,0.304c-1.341,4.211-2.62,9.292-3.801,15.104
			c-1.181,5.807-1.991,10.943-2.409,15.272c-0.46,4.88-0.693,10.477-0.693,16.635c0,2.723,0.067,4.723,0.206,6.111
			c0.156,1.59,0.385,2.699,0.721,3.492c0.499,1.176,1.401,2.008,2.541,2.343c0.031,0.009,0.063,0.018,0.094,0.026
			c0.412,0.102,0.841,0.153,1.282,0.153c0.276,0,0.557-0.02,0.842-0.06l0.162-0.023c0.054-0.008,0.109-0.018,0.163-0.029
			c0.453-0.099,0.931-0.232,1.367-0.541c0.669-0.479,1.052-1.246,1.052-2.104c0-0.079-0.004-0.227-0.037-0.44
			c-0.003-0.044-0.007-0.088-0.013-0.132c-0.024-0.188-0.08-0.864-0.08-3.085c0-4.321,0.118-7.964,0.349-10.813
			C108.828,57.407,110.132,50.258,112.175,42.118z"/>
		<path style="fill:#FFFFFF;" d="M125.238,49.818c0.007-0.048,0.01-0.089,0.011-0.127c-0.006,0.041-0.004,0.081-0.011,0.122
			C125.238,49.815,125.238,49.817,125.238,49.818z"/>
		<path style="fill:#FFFFFF;" d="M220.189,5.143c-0.706-0.607-1.621-1.069-2.723-1.374c-1.075-0.296-2.071-0.383-2.959-0.258h0
			c-0.58,0.082-1.123,0.282-1.613,0.595c-0.053,0.034-0.104,0.069-0.154,0.108c-0.629,0.48-0.953,1.049-1.892,3.89
			c-0.589,1.784-1.136,3.68-1.623,5.632c-0.424,1.686-1.298,5.804-2.674,12.589c-1.139,5.621-2.035,10.209-2.679,13.709
			c-0.806-0.369-1.49-0.506-2.146-0.412c-0.941,0.132-1.411,0.587-3.394,2.848c-1.043,1.19-2.162,2.283-3.317,3.242
			c-0.268,0.221-0.544,0.444-0.83,0.669c-0.108-1.24-0.386-2.358-0.83-3.331c-0.696-1.547-1.956-2.774-3.748-3.649
			c-1.704-0.831-3.469-1.14-5.282-0.913l-0.195,0.027c-1.065,0.15-2.195,0.608-3.469,1.41c-0.729,0.467-1.461,1.036-2.201,1.71
			c-0.191-0.96-0.848-2.106-2.636-3.041c-1.361-0.711-2.821-1.028-4.33-0.931l-1.204,0.072c-0.64,0.038-1.232,0.347-1.63,0.85
			l-0.75,0.949c-1.598,1.933-3.062,4.695-4.461,8.402c-0.536,0.953-1.024,1.82-1.451,2.574c-2.262,3.974-4.659,7.646-7.126,10.913
			c-2.818,3.732-4.322,5.089-5.041,5.583c-0.034-0.298-0.058-0.672-0.058-1.139c0-0.348,0.006-0.619,0.024-0.813
			c0.002-0.025,0.004-0.05,0.006-0.075c0.118-2.133,0.607-4.519,1.452-7.092c0.876-2.667,2.26-5.957,4.112-9.773
			c1.348-2.757,1.595-3.622,1.595-4.334c0-0.478-0.096-1.138-0.504-1.82c0.526-0.161,0.901-0.435,1.156-0.69
			c0.583-0.545,0.904-1.271,0.91-2.113c0.105-0.236,0.359-0.741,0.956-1.691c0.794-1.263,1.495-2.199,2.071-2.769
			c0.759-0.738,1.461-1.572,1.461-2.664c0-0.353-0.072-0.632-0.224-1.142c-0.016-0.055-0.035-0.11-0.056-0.164
			c-0.311-0.813-0.907-1.59-1.82-2.376c-0.844-0.725-1.722-1.239-2.643-1.536c-0.996-0.307-1.676-0.402-2.273-0.318
			c-0.001,0-0.002,0-0.003,0c-0.673,0.095-1.303,0.394-1.84,0.86c-0.672,0.559-1.072,1.183-1.193,1.859
			c-0.074,0.213-0.296,0.807-0.951,2.428c-1.375,3.423-1.561,4.631-1.561,5.361c0,0.287,0.037,0.603,0.102,0.916
			c0.091,0.5,0.27,0.975,0.533,1.423c-0.391-0.006-0.78,0.02-1.171,0.075c-0.001,0-0.001,0-0.002,0
			c-0.79,0.112-1.434,0.344-1.979,0.718c-0.51,0.355-0.961,0.934-1.722,2.214c-0.556,0.935-1.072,1.912-1.54,2.912
			c-0.715,1.549-1.393,3.352-2.027,5.351c-1.063,1.18-1.918,2.054-2.548,2.604c-0.391,0.342-0.681,0.545-0.875,0.664
			c-0.117-0.379-0.263-0.992-0.393-1.951c-0.476-3.773-0.887-4.926-1.241-5.585c-0.558-1.004-1.376-1.799-2.43-2.365
			c-1.1-0.59-2.231-0.809-3.36-0.65c-0.785,0.11-1.415,0.342-1.927,0.71c-0.276,0.199-0.651,0.524-1.5,1.525
			c-0.738,0.841-1.736,2.282-3.05,4.404c-0.057,0.092-0.113,0.183-0.17,0.275c0.021-0.079,0.037-0.144,0.049-0.202
			c0.015-0.071,0.027-0.143,0.035-0.215c0.001-0.005,0.001-0.01,0.002-0.015c0.009-0.081,0.014-0.162,0.014-0.244
			c0,0.029,0,0.072-0.003,0.121c0.017-0.131,0.035-0.262,0.035-0.387c0-1.635-0.95-3.073-2.823-4.276
			c-1.652-1.059-3.228-1.493-4.681-1.288c-1.132,0.159-2.055,0.754-2.597,1.672c-1.498,2.529-2.745,5.905-3.703,10.034
			c-0.945,4.071-1.424,7.743-1.424,10.946c0,3.922,0.371,6.765,1.134,8.691c1.193,3.012,3.338,3.927,4.95,4.159
			c0.264,0.047,0.533,0.071,0.806,0.071c0.225,0,0.452-0.016,0.681-0.048c0.88-0.124,2.14-0.636,3.144-2.369
			c0.526-0.908,1.175-2.47,2.038-4.9c2.741-7.561,5.663-13.554,8.698-17.848c0.34,1.02,0.665,1.744,0.994,2.228
			c0.832,1.289,1.96,2.326,3.353,3.083c1.432,0.777,2.912,1.126,4.392,1.041c0.061-0.004,0.121-0.01,0.181-0.018l0.196-0.028
			c-0.038,0.724-0.058,1.502-0.058,2.333c0,2.264,0.112,3.797,0.349,4.82c0.446,1.946,1.228,3.456,2.323,4.491
			c1.169,1.103,2.742,1.708,4.645,1.797c0.131,0.008,0.265,0.012,0.4,0.012c0.352,0,0.716-0.026,1.088-0.079
			c1.502-0.211,3.096-0.871,4.736-1.961c1.089-0.723,2.417-1.992,4.062-3.879c0.286-0.328,0.576-0.678,0.867-1.027
			c-0.46,4.049-0.798,8.934-1.002,14.609c-0.045,1.003-0.067,2.518-0.067,4.631c0,6.18,0.252,7.883,0.484,8.72
			c0.181,0.604,0.722,1.684,2.32,2.14c0.473,0.134,0.969,0.202,1.484,0.202c0.286,0,0.578-0.021,0.874-0.062
			c0.799-0.112,1.503-0.349,2.036-0.674c0.861-0.49,1.455-1.332,1.673-2.371c0.071-0.339,0.198-1.138,0.554-4.334
			c0.633-5.68,1.81-11.428,3.496-17.081c0.089-0.297,0.173-0.575,0.252-0.834c1.498,0.923,3.397,1.289,5.662,1.091
			c0.039-0.004,0.078-0.008,0.118-0.014l0.617-0.087c1.647-0.231,3.122-0.769,4.385-1.598c1.167-0.766,2.492-2.003,4.051-3.78
			c2.698-3.078,4.816-6.569,6.294-10.381l0.457-1.185l1.891-1.248c3.213-2.088,5.805-4.117,7.844-6.142
			c-0.348,2.462-0.52,4.253-0.52,5.407v1.463c0,0.667,0.294,1.279,0.771,1.695c-0.053,0.032-0.106,0.064-0.158,0.097l-0.683,0.454
			c-0.599,0.398-0.971,1.058-1.002,1.776l-0.13,3.043c-0.023,0.528-0.035,1.169-0.035,1.922c0,1.22,0.136,2.457,1.118,3.243
			c0.605,0.485,1.315,0.627,2.018,0.627c0.357,0,0.712-0.037,1.05-0.085c1.475-0.207,2.543-0.783,3.174-1.714
			c0.329-0.485,0.708-1.274,1.242-3.723c0.641-2.833,0.641-3.112,0.641-3.408c0-0.404-0.111-1.573-1.298-2.348
			c0.008-0.008,0.017-0.016,0.025-0.023c0.694-0.63,1.016-1.557,1.348-3.831c0.594-4.179,2.014-10.884,4.22-19.931
			c1.451-5.963,3.027-11.392,4.685-16.131c2.458-6.995,2.664-8.349,2.664-9.07C221.589,7.261,221.346,6.138,220.189,5.143z
			 M177.785,62.202c-0.868,1.441-1.532,2.425-2.023,3.093c0.06-0.366,0.154-0.811,0.297-1.347c0.302-1.125,0.511-1.476,0.504-1.476
			c0,0-0.001,0.001-0.003,0.002c0.417-0.49,0.892-0.867,1.453-1.153c0.124-0.063,0.259-0.125,0.405-0.187
			C178.227,61.462,178.016,61.817,177.785,62.202L177.785,62.202z M178.651,54.146c1.095-1.716,2.299-3.304,3.59-4.735
			c0.425-0.472,0.837-0.902,1.234-1.291c-0.067,0.306-0.143,0.643-0.229,1.015c-0.4,1.716-0.761,3.015-1.085,3.892
			c-0.04,0.115-0.076,0.207-0.107,0.283C181.591,53.449,180.626,53.707,178.651,54.146z"/>
		<path style="fill:#FFFFFF;" d="M19.236,59.447c0.599-0.423,1.137-0.933,1.612-1.528c1.155-1.45,1.741-3.183,1.741-5.153
			c0-2.506-0.963-4.653-2.793-6.214c-1.64-1.388-4.039-2.062-7.333-2.062H8.83c-1.241,0-2.248,1.006-2.248,2.248v20.547
			c0,1.241,1.006,2.248,2.248,2.248h3.101c1.241,0,2.248-1.006,2.248-2.248v-2.062l2.336,3.348c0.421,0.603,1.109,0.961,1.844,0.961
			h3.793c0.845,0,1.619-0.474,2.003-1.227c0.384-0.753,0.313-1.658-0.184-2.341L19.236,59.447z M14.178,51.978
			c0.894,0.157,0.894,0.521,0.894,0.827c0,0.41,0,0.831-0.894,1.018V51.978z"/>
		<path style="fill:#FFFFFF;" d="M37.438,44.104c-3.56,0-6.651,1.265-9.184,3.756c-2.559,2.505-3.856,5.552-3.856,9.058
			c0,3.954,1.432,7.21,4.259,9.681c2.522,2.194,5.422,3.306,8.621,3.306c3.591,0,6.703-1.258,9.247-3.739
			c2.552-2.488,3.846-5.559,3.846-9.128c0-3.542-1.284-6.617-3.812-9.134C44.039,45.382,40.97,44.104,37.438,44.104z M41.181,60.935
			c-1.067,1.073-2.294,1.573-3.862,1.573c-1.395,0-2.604-0.512-3.701-1.571c-1.074-1.03-1.597-2.332-1.597-3.98
			c0-1.559,0.507-2.823,1.561-3.877c1.056-1.069,2.269-1.568,3.816-1.568c1.551,0,2.757,0.495,3.804,1.568
			c1.04,1.053,1.546,2.338,1.546,3.929C42.749,58.577,42.233,59.864,41.181,60.935z"/>
		<path style="fill:#FFFFFF;" d="M64.837,44.525c-0.36-0.802-1.156-1.321-2.035-1.327c-0.005,0-0.01,0-0.015,0
			c-0.874,0-1.669,0.506-2.038,1.299L50.582,66.335c-0.324,0.696-0.27,1.51,0.142,2.157c0.413,0.648,1.128,1.039,1.896,1.039h3.34
			c0.879,0,1.677-0.512,2.043-1.311l1.688-3.68h5.877l1.57,3.634c0.356,0.824,1.167,1.357,2.063,1.357h3.393
			c0.762,0,1.473-0.386,1.887-1.027c0.414-0.64,0.476-1.446,0.164-2.142L64.837,44.525z"/>
		<path style="fill:#FFFFFF;" d="M89.517,45.222c-1.446-0.492-3.285-0.732-5.622-0.732h-4.312c-1.241,0-2.248,1.006-2.248,2.248
			v20.547c0,1.241,1.006,2.248,2.248,2.248h4.258c2.352,0,4.166-0.225,5.503-0.675c1.51-0.473,2.956-1.312,4.303-2.496
			c2.702-2.388,4.073-5.534,4.073-9.349c0-3.792-1.317-6.916-3.911-9.283C92.521,46.548,91.057,45.699,89.517,45.222z M84.932,62.1
			V51.926c1.62,0.106,2.837,0.526,3.621,1.248c1.054,0.98,1.545,2.199,1.545,3.836c0,1.611-0.495,2.813-1.549,3.776
			c-0.518,0.469-1.078,0.801-1.674,1.002C86.357,61.953,85.706,62.057,84.932,62.1z"/>
	</g>
	<g>
		<g>
			<path style="fill:#B7B7B7;" d="M102.379,16.148c5.247-1.518,11.362-2.768,18.344-3.749l1.301-0.183
				c4.228-0.572,7.291-0.921,9.188-1.047c1.897-0.126,3.941-0.126,6.131,0.001c2.515,0.145,4.64,0.535,6.375,1.169
				c1.734,0.635,2.808,1.4,3.22,2.297c0.13,0.263,0.195,0.461,0.195,0.59c0,0.087-0.076,0.217-0.228,0.39
				c-0.13,0.149-0.238,0.229-0.325,0.241c-0.108,0.015-0.499-0.103-1.171-0.356c-1.8-0.701-4.488-1.05-8.066-1.046
				c-1.626-0.01-5.963,0.48-13.01,1.47c-2.147,0.302-3.47,0.52-3.968,0.656l-1.171,0.327l-1.301,3.273
				c-2.624,6.527-4.977,13.938-7.058,22.231c-2.082,8.294-3.393,15.493-3.935,21.597c-0.239,2.939-0.358,6.61-0.358,11.012
				c0,1.735,0.033,2.858,0.098,3.369c0,0.043,0.005,0.097,0.016,0.16c0.011,0.064,0.016,0.106,0.016,0.128
				c0,0.13-0.038,0.222-0.114,0.276c-0.076,0.054-0.255,0.111-0.537,0.173l-0.162,0.023c-0.455,0.064-0.878,0.047-1.269-0.049
				c-0.499-0.146-0.867-0.502-1.106-1.064c-0.239-0.563-0.423-1.507-0.553-2.834c-0.13-1.304-0.195-3.268-0.195-5.892
				c0-6.115,0.228-11.59,0.683-16.424c0.412-4.264,1.203-9.276,2.374-15.035c1.171-5.759,2.418-10.716,3.74-14.869
				c0.846-2.743,1.269-4.136,1.269-4.179c-0.043-0.016-0.098-0.018-0.163-0.009c-0.52,0.073-1.859,0.446-4.017,1.117
				c-2.157,0.672-3.822,1.242-4.993,1.71c-3.881,1.543-7.047,3.321-9.498,5.335c-0.867,0.707-1.453,1.082-1.756,1.125
				c-0.303,0.043-0.699-0.075-1.187-0.354c-0.488-0.278-0.862-0.605-1.122-0.981c-0.217-0.316-0.325-0.67-0.325-1.06
				c0-0.997,0.791-2.172,2.374-3.522C93.044,19.671,97.132,17.665,102.379,16.148z"/>
			<path style="fill:#B7B7B7;" d="M118.933,46.807c0.911-0.128,1.962,0.19,3.155,0.955c1.193,0.765,1.789,1.56,1.789,2.384
				c0,0.043-0.006,0.093-0.016,0.149c-0.011,0.056-0.016,0.095-0.016,0.116c-0.087,0.402-0.574,1.717-1.463,3.946
				c-1.692,4.228-2.857,7.486-3.497,9.777c-0.64,2.291-1.003,4.667-1.09,7.13c-0.022,0.415-0.033,0.916-0.033,1.501
				c0,0.412,0.033,0.614,0.098,0.605c0.108-0.015,0.65-1.284,1.626-3.807c1.67-4.441,3.415-8.362,5.237-11.762
				c0.997-1.875,2.114-3.81,3.35-5.805c1.236-1.995,2.179-3.364,2.83-4.106c0.542-0.64,0.916-1.034,1.122-1.182
				c0.206-0.148,0.515-0.252,0.927-0.31c0.65-0.091,1.312,0.044,1.984,0.405c0.672,0.361,1.182,0.853,1.529,1.477
				c0.325,0.605,0.651,2.196,0.976,4.774c0.304,2.234,0.781,3.544,1.431,3.93c0.282,0.155,0.683,0.197,1.204,0.124
				c0.628-0.088,1.409-0.54,2.342-1.354c0.933-0.814,2.244-2.197,3.936-4.147c1.995-2.275,3.122-3.431,3.383-3.467
				c0.282-0.04,0.645,0.077,1.089,0.351c0.445,0.273,0.667,0.519,0.667,0.735c0,0.217-0.851,1.339-2.553,3.367
				c-1.702,2.028-3.031,3.489-3.984,4.381c-0.738,0.711-1.35,1.209-1.838,1.495c-0.488,0.285-1.035,0.47-1.642,0.556l-0.521,0.073
				c-1.062,0.062-2.125-0.195-3.188-0.772c-1.062-0.577-1.908-1.353-2.537-2.327c-0.282-0.416-0.591-1.175-0.927-2.277
				c-0.336-1.102-0.558-2.046-0.667-2.834l-0.13-0.957l-1.366,1.623c-3.773,4.585-7.308,11.424-10.603,20.517
				c-0.802,2.259-1.426,3.772-1.87,4.539c-0.445,0.768-0.949,1.191-1.512,1.27c-0.282,0.04-0.553,0.035-0.813-0.016
				c-1.496-0.202-2.569-1.124-3.22-2.768c-0.651-1.643-0.976-4.265-0.976-7.864v-0.032c0-3.014,0.455-6.483,1.366-10.405
				c0.911-3.923,2.06-7.055,3.448-9.396C118.152,47.068,118.478,46.871,118.933,46.807z"/>
			<path style="fill:#B7B7B7;" d="M151.067,42.486c0.824-0.116,1.637-0.046,2.439,0.21c1.366,0.48,2.049,1.121,2.049,1.924
				c0,0.369-0.455,1.484-1.366,3.347c-1.908,3.932-3.317,7.285-4.228,10.059c-0.911,2.773-1.431,5.329-1.561,7.668
				c-0.022,0.242-0.033,0.579-0.033,1.013c0,1.713,0.271,2.911,0.813,3.593c0.26,0.332,0.51,0.482,0.748,0.448
				c0.26-0.036,0.835-0.324,1.724-0.861c1.366-0.82,3.317-2.911,5.854-6.271c2.537-3.359,4.966-7.078,7.286-11.155
				c0.694-1.225,1.528-2.708,2.504-4.45c0.217-0.42,0.542-0.661,0.976-0.722c0.368-0.052,0.78,0.01,1.236,0.184
				c0.456,0.174,0.683,0.37,0.683,0.587c0,0.217-1.046,2.017-3.138,5.401c-2.093,3.384-3.789,6.013-5.09,7.887
				c-1.605,2.285-3.155,4.286-4.651,6.004c-1.496,1.717-2.7,2.879-3.61,3.484c-1.366,0.908-2.635,1.443-3.805,1.607
				c-0.369,0.052-0.716,0.068-1.041,0.049c-1.388-0.065-2.466-0.461-3.237-1.188c-0.77-0.727-1.328-1.846-1.675-3.359
				c-0.195-0.84-0.293-2.279-0.293-4.318c0-1.518,0.065-2.828,0.195-3.93c0.217-1.787,0.683-3.896,1.399-6.327
				c0.716-2.432,1.485-4.54,2.309-6.326c0.434-0.928,0.911-1.83,1.431-2.706c0.521-0.875,0.878-1.381,1.073-1.517
				C150.297,42.66,150.633,42.547,151.067,42.486z M157.149,29.565c0.239-0.033,0.672,0.047,1.301,0.24
				c0.607,0.196,1.22,0.56,1.838,1.092c0.618,0.531,1.014,1.023,1.187,1.476c0.087,0.292,0.13,0.459,0.13,0.502
				c0,0.195-0.26,0.547-0.781,1.053c-0.716,0.708-1.518,1.77-2.407,3.184c-0.889,1.415-1.333,2.328-1.333,2.741v0.097l0.033,0.028
				v0.065c0,0.173-0.076,0.325-0.228,0.455c-0.087,0.099-0.217,0.161-0.39,0.185c-0.499,0.07-1.079-0.152-1.74-0.667
				c-0.661-0.514-1.046-1.067-1.155-1.659c-0.044-0.21-0.065-0.382-0.065-0.511c0-0.694,0.466-2.201,1.399-4.523
				c0.715-1.77,1.073-2.709,1.073-2.818c0-0.152,0.141-0.345,0.423-0.58C156.672,29.719,156.911,29.598,157.149,29.565z"/>
			<path style="fill:#B7B7B7;" d="M171.265,40.82l1.204-0.072c1.106-0.068,2.157,0.158,3.155,0.679
				c0.997,0.521,1.496,1.096,1.496,1.725c0,0.347-0.51,1.535-1.528,3.564c-1.431,2.869-2.58,5.48-3.448,7.836
				c-0.304,0.845-0.721,2.134-1.252,3.867c-0.531,1.733-0.797,2.676-0.797,2.828c0.065-0.009,0.358-0.636,0.878-1.879
				c1.605-3.803,3.486-7.234,5.643-10.291c2.158-3.056,4.19-5.196,6.099-6.418c0.976-0.614,1.833-0.973,2.57-1.077l0.195-0.027
				c1.344-0.168,2.673,0.069,3.984,0.708c1.312,0.64,2.206,1.49,2.684,2.55c0.455,0.998,0.683,2.203,0.683,3.612
				c0,0.52-0.033,1.045-0.098,1.575c-0.087,0.619-0.13,1.135-0.13,1.547v0.13l0.033-0.005c0.151-0.021,0.743-0.408,1.773-1.16
				c1.03-0.752,1.989-1.493,2.878-2.226c1.258-1.045,2.45-2.209,3.578-3.495c1.214-1.385,1.886-2.086,2.017-2.104
				c0.217-0.031,0.537,0.054,0.96,0.255c0.423,0.201,0.689,0.402,0.797,0.604c0.087,0.204,0.13,0.318,0.13,0.34
				c0,0.152-0.119,0.407-0.358,0.766c-2.017,2.907-5.41,5.91-10.181,9.009l-2.505,1.653l-0.715,1.857
				c-1.388,3.577-3.35,6.814-5.887,9.707c-1.409,1.607-2.607,2.735-3.594,3.383c-0.987,0.648-2.141,1.065-3.464,1.251l-0.618,0.087
				c-2.06,0.18-3.654-0.192-4.781-1.117c-0.368-0.295-0.694-0.672-0.976-1.132c-0.282-0.459-0.434-0.85-0.456-1.172
				c0-0.087-0.011-0.129-0.033-0.126c-0.108,0.015-0.65,1.642-1.626,4.88c-1.735,5.816-2.927,11.643-3.578,17.481
				c-0.26,2.336-0.434,3.709-0.52,4.123c-0.087,0.413-0.282,0.706-0.585,0.879c-0.325,0.197-0.738,0.331-1.236,0.401
				c-0.52,0.073-0.997,0.048-1.431-0.076c-0.434-0.123-0.694-0.331-0.781-0.622c-0.26-0.94-0.39-3.631-0.39-8.076
				c0-2.06,0.021-3.57,0.065-4.53c0.282-7.824,0.802-14.045,1.561-18.661c0.759-4.704,1.854-9.075,3.285-13.114
				c1.431-4.04,2.938-7.016,4.521-8.93L171.265,40.82z M180.551,64.202c1.897-3.151,2.846-5.019,2.846-5.604
				c0-0.043-0.022-0.062-0.065-0.056c-0.043,0.006-0.737,0.169-2.082,0.488c-1.453,0.334-2.591,0.711-3.415,1.13
				c-0.824,0.419-1.539,0.986-2.147,1.701c-0.325,0.393-0.645,1.174-0.959,2.346c-0.315,1.172-0.471,2.159-0.471,2.962v0.358
				c0.065,0.728,0.249,1.282,0.553,1.662c0.304,0.38,0.672,0.54,1.106,0.479c0.195-0.027,0.347-0.071,0.455-0.129
				C177.26,69.131,178.654,67.352,180.551,64.202z M187.04,45.726c0-0.499-0.033-0.808-0.098-0.929
				c-0.087-0.205-0.184-0.3-0.293-0.285c-0.022,0.003-0.239,0.11-0.651,0.319c-1.366,0.734-2.895,2.039-4.586,3.913
				c-1.691,1.875-3.22,3.97-4.586,6.288c-1.345,2.271-2.017,3.536-2.017,3.796v0.032l0.033-0.004
				c0.108-0.015,0.499-0.189,1.171-0.522c0.716-0.339,1.854-0.683,3.415-1.033c2.775-0.607,4.391-1.029,4.846-1.266
				c0.282-0.148,0.564-0.621,0.845-1.42c0.347-0.938,0.732-2.315,1.155-4.13c0.423-1.816,0.667-3.108,0.732-3.876
				C187.029,46.41,187.04,46.116,187.04,45.726z"/>
			<path style="fill:#B7B7B7;" d="M206.066,59.446c0.629-0.088,1.198-0.059,1.707,0.086c0.51,0.145,0.765,0.37,0.765,0.673
				c0,0.217-0.195,1.187-0.586,2.912c-0.347,1.588-0.65,2.574-0.911,2.958c-0.26,0.383-0.802,0.633-1.626,0.749
				c-0.716,0.101-1.166,0.077-1.35-0.071c-0.184-0.147-0.277-0.644-0.277-1.49c0-0.716,0.011-1.324,0.033-1.826l0.13-3.044
				l0.683-0.454C205.025,59.69,205.502,59.525,206.066,59.446z M215.661,6.578c0.586-0.082,1.269-0.016,2.049,0.199
				c0.781,0.216,1.399,0.519,1.854,0.911c0.412,0.354,0.618,0.748,0.618,1.181c0,0.738-0.845,3.512-2.537,8.325
				c-1.691,4.835-3.274,10.283-4.749,16.345c-2.233,9.161-3.654,15.876-4.261,20.146c-0.217,1.484-0.434,2.316-0.65,2.499
				c-0.173,0.176-0.488,0.296-0.943,0.36c-0.477,0.067-0.922,0.031-1.334-0.105l-0.683-0.165v-1.463
				c0-1.865,0.52-5.755,1.561-11.669c0.65-3.669,1.654-8.846,3.009-15.53c1.355-6.685,2.239-10.848,2.651-12.488
				c0.477-1.91,1.003-3.735,1.577-5.474c0.575-1.74,0.949-2.676,1.122-2.809C215.162,6.702,215.4,6.614,215.661,6.578z"/>
		</g>
		<g>
			<path style="fill:#B7B7B7;" d="M16.63,59.368l6.361,8.756h-3.792l-5.869-8.41h-0.559v8.41H9.67V47.578h3.633
				c2.715,0,4.675,0.51,5.882,1.53c1.331,1.136,1.996,2.635,1.996,4.498c0,1.455-0.417,2.706-1.251,3.753
				C19.096,58.406,17.996,59.075,16.63,59.368z M12.771,57.013h0.985c2.937,0,4.405-1.122,4.405-3.367
				c0-2.103-1.429-3.154-4.285-3.154h-1.105V57.013z"/>
			<path style="fill:#B7B7B7;" d="M27.486,57.758c0-2.892,1.06-5.376,3.181-7.452c2.111-2.076,4.649-3.114,7.611-3.114
				c2.928,0,5.438,1.047,7.532,3.141c2.103,2.094,3.154,4.609,3.154,7.545c0,2.954-1.056,5.46-3.167,7.519
				c-2.121,2.067-4.68,3.101-7.679,3.101c-2.653,0-5.035-0.918-7.146-2.754C28.649,63.711,27.486,61.049,27.486,57.758z
				 M30.614,57.798c0,2.271,0.763,4.139,2.289,5.602c1.517,1.464,3.269,2.196,5.256,2.196c2.156,0,3.974-0.745,5.456-2.236
				c1.481-1.508,2.222-3.344,2.222-5.509c0-2.191-0.732-4.028-2.196-5.509c-1.455-1.491-3.256-2.236-5.403-2.236
				c-2.138,0-3.944,0.745-5.416,2.236C31.35,53.815,30.614,55.633,30.614,57.798z"/>
			<path style="fill:#B7B7B7;" d="M67.885,63.134h-8.796l-2.289,4.99h-3.34l10.167-21.838l9.808,21.838h-3.393L67.885,63.134z
				 M66.621,60.22l-3.047-6.987L60.38,60.22H66.621z"/>
			<path style="fill:#B7B7B7;" d="M80.425,68.124V47.578h4.312c2.067,0,3.7,0.204,4.897,0.612c1.286,0.399,2.453,1.078,3.5,2.036
				c2.12,1.934,3.181,4.476,3.181,7.625c0,3.158-1.105,5.713-3.313,7.665c-1.109,0.976-2.271,1.655-3.486,2.036
				c-1.136,0.382-2.746,0.572-4.831,0.572H80.425z M83.525,65.21h1.397c1.393,0,2.55-0.146,3.473-0.439
				c0.923-0.311,1.757-0.803,2.502-1.477c1.526-1.393,2.289-3.207,2.289-5.443c0-2.254-0.754-4.081-2.262-5.483
				c-1.358-1.251-3.358-1.876-6.002-1.876h-1.397V65.21z"/>
		</g>
	</g>
	<g>
		<g>
			<path style="fill:#DB2323;" d="M101.539,15.308c5.247-1.518,11.362-2.768,18.344-3.749l1.301-0.183
				c4.228-0.572,7.291-0.921,9.189-1.047c1.897-0.126,3.941-0.126,6.131,0c2.515,0.145,4.64,0.535,6.375,1.169
				c1.734,0.635,2.808,1.4,3.22,2.297c0.13,0.263,0.195,0.461,0.195,0.59c0,0.087-0.076,0.217-0.228,0.39
				c-0.13,0.149-0.239,0.229-0.325,0.241c-0.108,0.015-0.499-0.103-1.171-0.356c-1.8-0.701-4.488-1.05-8.066-1.046
				c-1.626-0.01-5.963,0.48-13.01,1.47c-2.147,0.302-3.47,0.52-3.968,0.656l-1.171,0.327l-1.301,3.273
				c-2.624,6.527-4.977,13.938-7.058,22.231c-2.082,8.294-3.393,15.493-3.935,21.597c-0.239,2.939-0.358,6.61-0.358,11.012
				c0,1.735,0.033,2.858,0.098,3.369c0,0.043,0.005,0.097,0.016,0.16c0.011,0.064,0.016,0.106,0.016,0.128
				c0,0.13-0.038,0.222-0.114,0.276c-0.076,0.054-0.255,0.111-0.537,0.173l-0.162,0.023c-0.455,0.064-0.878,0.047-1.269-0.049
				c-0.499-0.146-0.867-0.502-1.106-1.064c-0.239-0.563-0.423-1.507-0.553-2.834c-0.13-1.304-0.195-3.268-0.195-5.892
				c0-6.115,0.228-11.59,0.683-16.424c0.412-4.264,1.203-9.276,2.374-15.035c1.171-5.759,2.418-10.716,3.74-14.869
				c0.846-2.743,1.269-4.136,1.269-4.179c-0.044-0.016-0.098-0.018-0.163-0.009c-0.52,0.073-1.859,0.446-4.017,1.117
				c-2.157,0.672-3.822,1.242-4.993,1.71c-3.881,1.543-7.047,3.321-9.498,5.335c-0.867,0.707-1.453,1.082-1.756,1.125
				c-0.303,0.043-0.699-0.075-1.187-0.353c-0.488-0.278-0.862-0.605-1.122-0.981c-0.217-0.316-0.325-0.67-0.325-1.06
				c0-0.997,0.791-2.172,2.374-3.522C92.204,18.83,96.291,16.825,101.539,15.308z"/>
			<path style="fill:#DB2323;" d="M118.093,45.966c0.911-0.128,1.962,0.19,3.155,0.955c1.193,0.765,1.789,1.56,1.789,2.383
				c0,0.043-0.005,0.093-0.016,0.149c-0.011,0.056-0.016,0.095-0.016,0.116c-0.087,0.402-0.574,1.717-1.463,3.946
				c-1.692,4.228-2.857,7.486-3.497,9.777c-0.64,2.291-1.003,4.667-1.09,7.13c-0.022,0.415-0.033,0.915-0.033,1.501
				c0,0.412,0.033,0.614,0.098,0.605c0.108-0.015,0.65-1.284,1.626-3.806c1.67-4.441,3.415-8.362,5.237-11.762
				c0.997-1.875,2.114-3.81,3.35-5.805c1.236-1.995,2.179-3.364,2.83-4.106c0.542-0.64,0.916-1.034,1.122-1.182
				c0.206-0.148,0.515-0.252,0.927-0.31c0.651-0.091,1.312,0.044,1.984,0.405c0.672,0.361,1.182,0.853,1.529,1.477
				c0.325,0.605,0.651,2.196,0.976,4.774c0.304,2.234,0.781,3.544,1.431,3.93c0.282,0.155,0.683,0.197,1.204,0.124
				c0.628-0.088,1.409-0.54,2.342-1.354c0.933-0.814,2.244-2.197,3.936-4.147c1.995-2.275,3.122-3.431,3.383-3.467
				c0.282-0.04,0.645,0.077,1.089,0.351c0.445,0.273,0.667,0.519,0.667,0.735c0,0.217-0.851,1.339-2.553,3.367
				c-1.702,2.028-3.031,3.489-3.984,4.381c-0.738,0.711-1.35,1.209-1.838,1.495c-0.488,0.285-1.035,0.47-1.642,0.556l-0.521,0.073
				c-1.062,0.062-2.125-0.195-3.188-0.772c-1.062-0.577-1.908-1.353-2.537-2.327c-0.282-0.416-0.591-1.175-0.927-2.277
				c-0.336-1.102-0.558-2.046-0.667-2.834l-0.13-0.957l-1.366,1.623c-3.773,4.585-7.308,11.424-10.603,20.517
				c-0.802,2.259-1.426,3.772-1.87,4.539c-0.445,0.768-0.949,1.191-1.512,1.27c-0.282,0.04-0.553,0.035-0.813-0.016
				c-1.496-0.202-2.569-1.124-3.22-2.768c-0.65-1.643-0.976-4.265-0.976-7.864V66.36c0-3.014,0.455-6.483,1.366-10.405
				c0.911-3.923,2.06-7.055,3.448-9.396C117.312,46.228,117.637,46.03,118.093,45.966z"/>
			<path style="fill:#DB2323;" d="M150.226,41.646c0.824-0.116,1.637-0.046,2.439,0.21c1.366,0.48,2.049,1.121,2.049,1.924
				c0,0.369-0.455,1.484-1.366,3.347c-1.908,3.932-3.317,7.285-4.228,10.059c-0.911,2.773-1.431,5.329-1.561,7.668
				c-0.022,0.242-0.033,0.579-0.033,1.013c0,1.713,0.271,2.911,0.813,3.593c0.26,0.332,0.51,0.482,0.748,0.448
				c0.26-0.036,0.835-0.324,1.724-0.861c1.366-0.82,3.317-2.911,5.854-6.271c2.537-3.359,4.966-7.078,7.286-11.155
				c0.694-1.225,1.529-2.708,2.504-4.45c0.217-0.42,0.542-0.661,0.976-0.722c0.368-0.052,0.78,0.01,1.236,0.184
				c0.456,0.174,0.683,0.37,0.683,0.587c0,0.217-1.046,2.017-3.139,5.401c-2.093,3.384-3.789,6.013-5.09,7.887
				c-1.605,2.285-3.155,4.286-4.651,6.004c-1.496,1.717-2.7,2.879-3.61,3.484c-1.366,0.908-2.635,1.443-3.806,1.607
				c-0.369,0.052-0.716,0.068-1.041,0.049c-1.388-0.065-2.466-0.461-3.237-1.188c-0.77-0.727-1.328-1.846-1.675-3.359
				c-0.195-0.84-0.293-2.279-0.293-4.318c0-1.518,0.065-2.828,0.195-3.93c0.217-1.787,0.683-3.896,1.399-6.327
				c0.716-2.432,1.485-4.54,2.309-6.326c0.434-0.928,0.911-1.83,1.431-2.706c0.521-0.875,0.878-1.381,1.073-1.517
				C149.457,41.819,149.793,41.707,150.226,41.646z M156.309,28.724c0.238-0.033,0.672,0.047,1.301,0.24
				c0.607,0.196,1.22,0.56,1.838,1.092s1.014,1.023,1.187,1.476c0.087,0.292,0.13,0.459,0.13,0.502c0,0.195-0.26,0.547-0.781,1.053
				c-0.716,0.708-1.518,1.77-2.407,3.184c-0.889,1.415-1.333,2.328-1.333,2.741v0.097l0.033,0.028v0.065
				c0,0.173-0.076,0.325-0.228,0.455c-0.087,0.099-0.217,0.161-0.39,0.185c-0.499,0.07-1.079-0.152-1.74-0.666
				c-0.661-0.514-1.046-1.067-1.155-1.659c-0.044-0.21-0.065-0.382-0.065-0.511c0-0.694,0.466-2.201,1.399-4.523
				c0.716-1.77,1.073-2.709,1.073-2.818c0-0.152,0.141-0.345,0.423-0.58C155.832,28.878,156.07,28.758,156.309,28.724z"/>
			<path style="fill:#DB2323;" d="M170.424,39.979l1.204-0.072c1.106-0.068,2.157,0.158,3.155,0.679
				c0.997,0.521,1.496,1.096,1.496,1.725c0,0.347-0.51,1.535-1.529,3.565c-1.431,2.869-2.58,5.48-3.448,7.836
				c-0.304,0.845-0.721,2.134-1.252,3.867c-0.531,1.733-0.797,2.676-0.797,2.828c0.065-0.009,0.358-0.636,0.878-1.879
				c1.605-3.803,3.486-7.234,5.643-10.291c2.158-3.056,4.19-5.196,6.099-6.418c0.976-0.614,1.833-0.973,2.57-1.077l0.195-0.027
				c1.344-0.168,2.672,0.069,3.984,0.708c1.312,0.64,2.206,1.49,2.684,2.55c0.455,0.998,0.683,2.203,0.683,3.612
				c0,0.52-0.033,1.045-0.098,1.575c-0.087,0.619-0.13,1.135-0.13,1.547v0.13l0.033-0.005c0.152-0.021,0.743-0.408,1.773-1.16
				c1.03-0.752,1.989-1.493,2.878-2.226c1.258-1.045,2.45-2.209,3.578-3.495c1.214-1.385,1.886-2.086,2.016-2.104
				c0.217-0.03,0.537,0.054,0.96,0.255c0.423,0.201,0.689,0.402,0.797,0.604c0.087,0.204,0.13,0.318,0.13,0.34
				c0,0.152-0.119,0.407-0.358,0.766c-2.017,2.907-5.41,5.91-10.181,9.009l-2.505,1.653l-0.716,1.857
				c-1.388,3.578-3.35,6.814-5.887,9.707c-1.409,1.607-2.607,2.735-3.594,3.383c-0.987,0.648-2.141,1.065-3.464,1.251l-0.618,0.087
				c-2.06,0.18-3.654-0.192-4.781-1.117c-0.368-0.295-0.694-0.672-0.976-1.132c-0.282-0.459-0.434-0.85-0.456-1.172
				c0-0.087-0.011-0.129-0.033-0.126c-0.108,0.015-0.65,1.642-1.626,4.88c-1.735,5.816-2.927,11.643-3.578,17.481
				c-0.26,2.336-0.434,3.709-0.52,4.123c-0.087,0.413-0.282,0.706-0.585,0.879c-0.325,0.197-0.738,0.331-1.236,0.401
				c-0.52,0.073-0.997,0.048-1.431-0.076c-0.434-0.123-0.694-0.33-0.781-0.622c-0.26-0.94-0.39-3.631-0.39-8.076
				c0-2.061,0.022-3.57,0.065-4.53c0.282-7.824,0.802-14.045,1.561-18.661c0.759-4.704,1.854-9.075,3.285-13.114
				c1.431-4.04,2.939-7.016,4.521-8.93L170.424,39.979z M179.71,63.362c1.897-3.151,2.846-5.019,2.846-5.604
				c0-0.043-0.022-0.062-0.065-0.056c-0.043,0.006-0.737,0.169-2.082,0.488c-1.453,0.334-2.591,0.711-3.415,1.13
				c-0.824,0.419-1.539,0.986-2.147,1.701c-0.325,0.393-0.645,1.174-0.959,2.346c-0.315,1.172-0.471,2.159-0.471,2.962v0.358
				c0.065,0.728,0.249,1.282,0.553,1.662c0.304,0.38,0.672,0.54,1.106,0.479c0.195-0.027,0.347-0.071,0.455-0.129
				C176.42,68.291,177.813,66.512,179.71,63.362z M186.199,44.886c0-0.499-0.033-0.808-0.098-0.929
				c-0.087-0.205-0.184-0.3-0.293-0.284c-0.022,0.003-0.239,0.11-0.651,0.319c-1.366,0.734-2.895,2.039-4.586,3.914
				c-1.691,1.875-3.22,3.97-4.586,6.288c-1.344,2.271-2.016,3.536-2.016,3.796v0.032l0.033-0.005
				c0.108-0.015,0.499-0.189,1.171-0.522c0.716-0.339,1.854-0.683,3.415-1.033c2.775-0.607,4.391-1.029,4.846-1.266
				c0.282-0.148,0.564-0.621,0.846-1.42c0.347-0.938,0.732-2.315,1.155-4.13c0.423-1.816,0.667-3.108,0.732-3.876
				C186.188,45.57,186.199,45.276,186.199,44.886z"/>
			<path style="fill:#DB2323;" d="M205.225,58.605c0.629-0.088,1.198-0.059,1.707,0.086c0.51,0.145,0.765,0.37,0.765,0.673
				c0,0.217-0.195,1.187-0.586,2.912c-0.347,1.588-0.65,2.574-0.911,2.958c-0.26,0.383-0.802,0.633-1.626,0.749
				c-0.716,0.101-1.165,0.077-1.35-0.071c-0.184-0.148-0.277-0.644-0.277-1.49c0-0.716,0.011-1.324,0.033-1.826l0.13-3.044
				l0.683-0.454C204.184,58.849,204.661,58.684,205.225,58.605z M214.82,5.737c0.586-0.082,1.269-0.016,2.049,0.199
				c0.781,0.216,1.399,0.519,1.854,0.911c0.412,0.354,0.618,0.748,0.618,1.181c0,0.738-0.845,3.512-2.537,8.325
				c-1.691,4.835-3.274,10.283-4.749,16.345c-2.233,9.16-3.654,15.876-4.261,20.146c-0.217,1.484-0.434,2.316-0.65,2.499
				c-0.173,0.176-0.488,0.296-0.943,0.36c-0.477,0.067-0.922,0.031-1.334-0.105l-0.683-0.165v-1.463
				c0-1.865,0.52-5.755,1.561-11.669c0.65-3.669,1.654-8.846,3.009-15.53c1.355-6.685,2.239-10.848,2.651-12.488
				c0.477-1.91,1.003-3.735,1.577-5.474c0.575-1.74,0.949-2.676,1.122-2.809C214.321,5.861,214.56,5.774,214.82,5.737z"/>
		</g>
		<g>
			<path style="fill:#D30000;" d="M106.59,58.542c-1.514,0.471-3.025,0.952-4.531,1.448c-0.108,2.675-0.163,5.5-0.163,8.479
				c0,2.624,0.065,4.588,0.195,5.892c0.13,1.326,0.315,2.271,0.553,2.834c0.239,0.563,0.607,0.918,1.106,1.064
				c0.39,0.097,0.813,0.113,1.269,0.049l0.162-0.023c0.282-0.062,0.461-0.119,0.537-0.173c0.076-0.055,0.114-0.146,0.114-0.277
				c0-0.022-0.005-0.064-0.016-0.128c-0.011-0.063-0.016-0.117-0.016-0.16c-0.065-0.511-0.098-1.634-0.098-3.369
				c0-4.402,0.119-8.073,0.358-11.012C106.191,61.691,106.369,60.147,106.59,58.542z"/>
			<path style="fill:#D30000;" d="M125.992,53.227c-0.747,1.266-1.463,2.517-2.109,3.733c-1.822,3.4-3.567,7.321-5.237,11.762
				c-0.976,2.522-1.518,3.791-1.626,3.806c-0.065,0.009-0.098-0.193-0.098-0.605c0-0.585,0.011-1.086,0.033-1.501
				c0.087-2.463,0.45-4.839,1.089-7.13c0.593-2.123,1.644-5.09,3.14-8.877c-2.55,0.651-5.092,1.333-7.622,2.051
				c-0.831,3.708-1.259,7.014-1.259,9.893v0.032c0,3.599,0.325,6.221,0.976,7.864c0.65,1.643,1.724,2.566,3.22,2.768
				c0.26,0.051,0.531,0.056,0.813,0.016c0.564-0.079,1.068-0.502,1.512-1.27c0.444-0.767,1.068-2.28,1.87-4.539
				c2.942-8.117,6.075-14.425,9.398-18.95C128.723,52.587,127.356,52.902,125.992,53.227z"/>
			<path style="fill:#D30000;" d="M147.118,48.973c-0.454,0.492-0.983,1.081-1.606,1.792c-1.692,1.95-3.003,3.333-3.936,4.147
				c-0.933,0.814-1.713,1.266-2.342,1.354c-0.52,0.073-0.922,0.031-1.203-0.124c-0.651-0.386-1.128-1.696-1.432-3.93
				c-0.058-0.458-0.115-0.874-0.173-1.27c-1.105,0.223-2.21,0.45-3.312,0.685c0.099,0.394,0.211,0.808,0.347,1.254
				c0.336,1.102,0.645,1.861,0.927,2.277c0.629,0.974,1.474,1.749,2.537,2.327c1.063,0.577,2.125,0.834,3.188,0.772l0.521-0.073
				c0.607-0.085,1.155-0.271,1.642-0.556c0.488-0.286,1.1-0.784,1.838-1.495c0.954-0.893,2.282-2.353,3.984-4.382
				c1.671-1.991,2.516-3.104,2.547-3.349C149.468,48.585,148.292,48.778,147.118,48.973z"/>
			<path style="fill:#D30000;" d="M168.669,46.633c-0.456-0.175-0.868-0.236-1.236-0.184c-0.434,0.061-0.759,0.302-0.976,0.722
				c-0.976,1.742-1.81,3.225-2.504,4.45c-2.32,4.077-4.749,7.796-7.286,11.155c-2.537,3.36-4.488,5.45-5.854,6.271
				c-0.889,0.537-1.464,0.824-1.724,0.861c-0.238,0.034-0.488-0.116-0.748-0.448c-0.542-0.683-0.813-1.88-0.813-3.593
				c0-0.434,0.011-0.771,0.033-1.013c0.13-2.339,0.65-4.895,1.561-7.668c0.836-2.545,2.112-5.601,3.787-9.121
				c-2.482,0.368-4.96,0.762-7.433,1.187c-0.369,1.02-0.726,2.11-1.07,3.279c-0.715,2.431-1.182,4.541-1.399,6.327
				c-0.13,1.103-0.195,2.413-0.195,3.93c0,2.039,0.098,3.478,0.293,4.318c0.347,1.513,0.905,2.632,1.675,3.359
				c0.77,0.727,1.848,1.123,3.237,1.188c0.325,0.02,0.672,0.003,1.041-0.049c1.171-0.164,2.439-0.7,3.805-1.607
				c0.911-0.605,2.114-1.766,3.61-3.484c1.496-1.717,3.047-3.718,4.651-6.004c1.301-1.874,2.998-4.503,5.091-7.887
				c2.092-3.384,3.138-5.185,3.138-5.401C169.351,47.004,169.124,46.808,168.669,46.633z"/>
			<path style="fill:#D30000;" d="M199.652,44.343c-1.02,1.126-2.084,2.171-3.208,3.104c-0.889,0.732-1.849,1.474-2.878,2.226
				c-1.03,0.752-1.621,1.139-1.772,1.16l-0.033,0.005v-0.13c0-0.412,0.043-0.928,0.13-1.547c0.065-0.53,0.098-1.055,0.098-1.575
				c0-1.152-0.161-2.16-0.465-3.037c-1.775,0.065-3.551,0.145-5.326,0.235c0,0.036,0.002,0.065,0.002,0.103
				c0,0.39-0.011,0.684-0.033,0.883c-0.065,0.768-0.309,2.06-0.732,3.876c-0.423,1.815-0.807,3.192-1.154,4.13
				c-0.282,0.798-0.564,1.272-0.846,1.42c-0.455,0.237-2.071,0.66-4.846,1.266c-1.561,0.35-2.7,0.694-3.415,1.033
				c-0.672,0.333-1.062,0.507-1.171,0.522l-0.033,0.004v-0.032c0-0.26,0.672-1.526,2.017-3.796c1.366-2.317,2.895-4.413,4.586-6.288
				c1.142-1.266,2.203-2.249,3.197-2.995c-1.903,0.11-3.806,0.24-5.707,0.38c-0.747,0.865-1.509,1.844-2.288,2.948
				c-2.157,3.057-4.038,6.487-5.643,10.291c-0.52,1.244-0.813,1.87-0.878,1.879c0-0.151,0.266-1.095,0.797-2.828
				c0.531-1.733,0.949-3.023,1.252-3.867c0.868-2.356,2.017-4.967,3.448-7.836c0.061-0.121,0.114-0.23,0.171-0.345
				c-2.799,0.231-5.595,0.496-8.387,0.794c-0.479,1.083-0.95,2.266-1.412,3.571c-1.431,4.039-2.526,8.41-3.285,13.114
				c-0.759,4.617-1.279,10.837-1.562,18.661c-0.043,0.96-0.065,2.47-0.065,4.53c0,4.445,0.13,7.137,0.39,8.076
				c0.087,0.291,0.347,0.498,0.781,0.622c0.434,0.124,0.911,0.149,1.431,0.076c0.499-0.07,0.911-0.204,1.236-0.401
				c0.303-0.173,0.499-0.466,0.585-0.879c0.087-0.414,0.26-1.787,0.52-4.123c0.651-5.837,1.843-11.664,3.578-17.481
				c0.976-3.238,1.518-4.865,1.626-4.88c0.022-0.003,0.033,0.039,0.033,0.126c0.022,0.322,0.174,0.712,0.456,1.172
				c0.282,0.459,0.607,0.836,0.976,1.132c1.128,0.925,2.722,1.298,4.781,1.117l0.618-0.087c1.322-0.186,2.477-0.603,3.464-1.251
				c0.987-0.648,2.185-1.776,3.594-3.383c2.537-2.893,4.499-6.129,5.887-9.707l0.716-1.857l2.505-1.653
				c4.499-2.923,7.757-5.759,9.807-8.51C202.014,44.316,200.833,44.326,199.652,44.343z M179.71,63.362
				c-1.897,3.15-3.29,4.929-4.18,5.336c-0.108,0.058-0.26,0.102-0.455,0.129c-0.434,0.061-0.802-0.099-1.106-0.479
				c-0.304-0.38-0.488-0.935-0.553-1.662v-0.358c0-0.803,0.157-1.79,0.471-2.961c0.314-1.172,0.634-1.953,0.959-2.346
				c0.607-0.715,1.323-1.281,2.147-1.701c0.824-0.419,1.962-0.796,3.415-1.13c1.345-0.319,2.039-0.482,2.082-0.488
				c0.044-0.006,0.065,0.013,0.065,0.056C182.556,58.343,181.607,60.211,179.71,63.362z"/>
			<path style="fill:#D30000;" d="M205.4,44.304c-0.81,4.796-1.216,8.021-1.216,9.666v1.463l0.683,0.165
				c0.412,0.137,0.857,0.172,1.334,0.105c0.455-0.064,0.77-0.184,0.943-0.36c0.217-0.183,0.434-1.015,0.65-2.499
				c0.312-2.192,0.841-5.038,1.581-8.517C208.051,44.313,206.726,44.306,205.4,44.304z"/>
			<path style="fill:#D30000;" d="M206.932,58.691c-0.509-0.145-1.079-0.174-1.707-0.086c-0.564,0.079-1.041,0.244-1.431,0.494
				l-0.683,0.454l-0.13,3.044c-0.021,0.501-0.033,1.11-0.033,1.826c0,0.846,0.092,1.342,0.277,1.49
				c0.184,0.147,0.634,0.171,1.35,0.071c0.824-0.116,1.366-0.365,1.626-0.749c0.26-0.384,0.564-1.37,0.911-2.958
				c0.39-1.725,0.586-2.695,0.586-2.912C207.697,59.061,207.442,58.836,206.932,58.691z"/>
		</g>
		<g>
			<path style="fill:#1D80B7;" d="M15.789,58.528l6.361,8.756h-3.792l-5.869-8.41H11.93v8.41H8.83V46.737h3.633
				c2.715,0,4.675,0.51,5.882,1.53c1.331,1.136,1.996,2.635,1.996,4.498c0,1.455-0.417,2.706-1.251,3.753
				C18.256,57.565,17.156,58.235,15.789,58.528z M11.93,56.172h0.985c2.937,0,4.405-1.122,4.405-3.367
				c0-2.103-1.428-3.154-4.285-3.154H11.93V56.172z"/>
			<path style="fill:#1D80B7;" d="M26.646,56.917c0-2.892,1.06-5.376,3.181-7.452c2.111-2.076,4.649-3.114,7.611-3.114
				c2.928,0,5.438,1.047,7.532,3.141c2.103,2.094,3.154,4.609,3.154,7.545c0,2.954-1.056,5.46-3.167,7.519
				c-2.121,2.067-4.68,3.101-7.679,3.101c-2.653,0-5.035-0.918-7.146-2.754C27.808,62.871,26.646,60.209,26.646,56.917z
				 M29.773,56.958c0,2.271,0.763,4.139,2.289,5.602c1.517,1.464,3.269,2.196,5.256,2.196c2.156,0,3.974-0.745,5.456-2.236
				c1.481-1.508,2.222-3.344,2.222-5.509c0-2.191-0.732-4.028-2.196-5.509c-1.455-1.491-3.256-2.236-5.403-2.236
				c-2.138,0-3.944,0.745-5.416,2.236C30.509,52.974,29.773,54.793,29.773,56.958z"/>
			<path style="fill:#1D80B7;" d="M67.045,62.294h-8.796l-2.289,4.99h-3.34l10.167-21.838l9.808,21.838h-3.393L67.045,62.294z
				 M65.78,59.379l-3.047-6.987l-3.194,6.987H65.78z"/>
			<path style="fill:#1D80B7;" d="M79.584,67.284V46.737h4.312c2.067,0,3.7,0.204,4.897,0.612c1.286,0.399,2.453,1.078,3.5,2.036
				c2.12,1.934,3.181,4.476,3.181,7.625c0,3.158-1.105,5.713-3.313,7.665c-1.109,0.976-2.271,1.655-3.486,2.036
				c-1.136,0.382-2.746,0.572-4.831,0.572H79.584z M82.685,64.37h1.397c1.393,0,2.55-0.146,3.473-0.439
				c0.923-0.311,1.757-0.803,2.502-1.477c1.526-1.393,2.289-3.207,2.289-5.443c0-2.254-0.754-4.081-2.262-5.483
				c-1.358-1.251-3.358-1.876-6.002-1.876h-1.397V64.37z"/>
		</g>
		<g style="opacity:0.8;">
			<path style="fill:#1D80B7;" d="M16.779,58.23H8.83v9.054h3.101v-8.41h0.559l5.869,8.41h3.792l-6.361-8.756
				C16.137,58.453,16.466,58.353,16.779,58.23z"/>
			<path style="fill:#1D80B7;" d="M44.905,58.23c-0.232,1.642-0.936,3.075-2.13,4.29c-1.482,1.491-3.3,2.236-5.456,2.236
				c-1.987,0-3.739-0.732-5.256-2.196c-1.23-1.179-1.955-2.626-2.194-4.33h-3.153c0.274,2.693,1.41,4.918,3.417,6.672
				c2.111,1.836,4.493,2.754,7.146,2.754c2.999,0,5.558-1.033,7.679-3.101c1.82-1.775,2.852-3.885,3.103-6.326H44.905z"/>
			<polygon style="fill:#1D80B7;" points="65.279,58.23 65.78,59.379 59.539,59.379 60.065,58.23 56.835,58.23 52.619,67.284 
				55.96,67.284 58.249,62.294 67.045,62.294 69.201,67.284 72.594,67.284 68.527,58.23 			"/>
			<path style="fill:#1D80B7;" d="M92.255,58.23c-0.234,1.683-0.961,3.094-2.198,4.223c-0.745,0.674-1.579,1.167-2.502,1.477
				c-0.923,0.293-2.08,0.439-3.473,0.439h-1.397v-6.14h-3.101v9.054h4.258c2.085,0,3.695-0.191,4.831-0.572
				c1.215-0.381,2.377-1.06,3.486-2.036c1.917-1.694,2.999-3.843,3.253-6.446H92.255z"/>
		</g>
		<g>
			<g>
				<path style="fill:#DD4A4A;" d="M104.976,77.194c-0.239-0.563-0.423-1.507-0.553-2.834c-0.13-1.304-0.195-3.268-0.195-5.892
					c0-6.115,0.228-11.59,0.683-16.424c0.412-4.264,1.203-9.276,2.374-15.035c1.171-5.759,2.418-10.716,3.74-14.869
					c0.846-2.743,1.269-4.136,1.269-4.179c-0.044-0.016-0.098-0.018-0.163-0.009c-0.368,0.052-1.154,0.256-2.341,0.607
					c-0.196,0.655-0.561,1.846-1.096,3.581c-1.322,4.154-2.569,9.11-3.74,14.869c-1.171,5.759-1.962,10.77-2.374,15.035
					c-0.456,4.835-0.683,10.309-0.683,16.424c0,2.624,0.065,4.588,0.195,5.892c0.13,1.326,0.315,2.271,0.553,2.834
					c0.239,0.563,0.607,0.918,1.106,1.064c0.39,0.097,0.813,0.113,1.269,0.049l0.162-0.023c0.282-0.062,0.461-0.119,0.537-0.173
					c0.003-0.002,0.004-0.006,0.006-0.008C105.403,77.916,105.153,77.613,104.976,77.194z"/>
				<path style="fill:#DD4A4A;" d="M89.559,25.905c-0.217-0.316-0.325-0.67-0.325-1.06c0-0.997,0.792-2.172,2.375-3.522
					c2.927-2.493,7.014-4.498,12.262-6.016c5.247-1.518,11.362-2.768,18.345-3.749l1.301-0.183c4.229-0.572,7.291-0.921,9.188-1.047
					c0.587-0.039,1.214-0.044,1.829-0.058c-1.448-0.033-2.852-0.029-4.16,0.058c-1.897,0.125-4.96,0.474-9.189,1.047l-1.301,0.183
					c-6.982,0.981-13.097,2.231-18.344,3.749c-5.248,1.517-9.335,3.523-12.262,6.016c-1.583,1.35-2.374,2.524-2.374,3.522
					c0,0.39,0.108,0.744,0.325,1.06c0.26,0.375,0.635,0.703,1.122,0.981c0.488,0.278,0.884,0.396,1.187,0.353
					c0.193-0.027,0.514-0.204,0.935-0.5C90.094,26.492,89.777,26.219,89.559,25.905z"/>
				<path style="fill:#DD4A4A;" d="M138.835,13.614c-0.219-0.001-0.491,0.007-0.809,0.024c2.825,0.086,5.01,0.425,6.544,1.022
					c0.672,0.252,1.063,0.371,1.171,0.356c0.087-0.012,0.195-0.093,0.325-0.241c0.124-0.141,0.185-0.247,0.207-0.331
					C144.497,13.889,142.021,13.611,138.835,13.614z"/>
			</g>
			<g>
				<path style="fill:#DD4A4A;" d="M140.362,56.143c0.282,0.155,0.683,0.197,1.204,0.124c0.629-0.088,1.409-0.54,2.342-1.354
					c0.932-0.814,2.244-2.197,3.936-4.147c1.143-1.304,1.992-2.227,2.565-2.796c-0.108-0.102-0.243-0.208-0.425-0.32
					c-0.445-0.274-0.808-0.391-1.09-0.351c-0.26,0.036-1.388,1.192-3.382,3.467c-1.692,1.95-3.003,3.333-3.936,4.147
					c-0.538,0.47-1.02,0.805-1.457,1.033C140.197,56.026,140.278,56.093,140.362,56.143z"/>
				<path style="fill:#DD4A4A;" d="M119.819,65.725c-0.291,1.531-0.477,3.094-0.534,4.698c-0.021,0.415-0.033,0.916-0.033,1.501
					c0,0.412,0.033,0.614,0.098,0.605c0.108-0.015,0.651-1.284,1.626-3.806c1.67-4.441,3.415-8.362,5.237-11.762
					c0.997-1.875,2.114-3.81,3.35-5.805c1.236-1.995,2.179-3.364,2.83-4.106c0.542-0.64,0.916-1.034,1.122-1.182
					c0.048-0.034,0.12-0.058,0.178-0.087c-0.534-0.217-1.062-0.296-1.583-0.222c-0.412,0.058-0.721,0.161-0.927,0.31
					c-0.206,0.148-0.58,0.542-1.122,1.182c-0.651,0.742-1.594,2.111-2.83,4.106c-1.236,1.995-2.353,3.93-3.35,5.805
					C122.483,59.571,121.129,62.498,119.819,65.725z"/>
				<path style="fill:#DD4A4A;" d="M139.257,57.485c-1.063-0.577-1.908-1.353-2.537-2.327c-0.282-0.416-0.591-1.175-0.927-2.277
					c-0.336-1.102-0.558-2.046-0.667-2.834l-0.13-0.957l-1.366,1.623c-0.189,0.23-0.375,0.49-0.562,0.731
					c0.107,0.446,0.237,0.922,0.394,1.437c0.336,1.102,0.645,1.861,0.927,2.277c0.629,0.974,1.474,1.749,2.537,2.327
					c1.063,0.577,2.125,0.834,3.188,0.772l0.521-0.073c0.095-0.013,0.18-0.045,0.272-0.064
					C140.356,57.993,139.806,57.784,139.257,57.485z"/>
				<path style="fill:#DD4A4A;" d="M115.61,74.257c-0.65-1.643-0.976-4.265-0.976-7.864V66.36c0-3.014,0.456-6.483,1.366-10.405
					c0.911-3.922,2.06-7.055,3.448-9.396c0.088-0.149,0.211-0.262,0.351-0.357c-0.613-0.219-1.186-0.309-1.707-0.236
					c-0.455,0.064-0.781,0.261-0.976,0.592c-1.388,2.342-2.537,5.474-3.448,9.396c-0.91,3.922-1.366,7.391-1.366,10.405v0.032
					c0,3.599,0.325,6.221,0.976,7.864c0.65,1.643,1.724,2.566,3.22,2.768c0.26,0.051,0.531,0.056,0.813,0.016
					c0.213-0.03,0.416-0.125,0.612-0.254C116.895,76.384,116.12,75.545,115.61,74.257z"/>
			</g>
			<g>
				<path style="fill:#DD4A4A;" d="M153.918,39.176c0.661,0.514,1.241,0.736,1.74,0.666c0.173-0.024,0.303-0.086,0.39-0.185
					c0.152-0.13,0.228-0.281,0.228-0.455v-0.008c-0.009-0.007-0.017-0.011-0.027-0.018c-0.661-0.514-1.046-1.067-1.154-1.659
					c-0.044-0.21-0.065-0.382-0.065-0.511c0-0.694,0.466-2.201,1.399-4.523c0.715-1.77,1.073-2.709,1.073-2.818
					c0-0.151,0.141-0.344,0.421-0.578c-0.105-0.044-0.209-0.089-0.313-0.123c-0.629-0.193-1.063-0.274-1.301-0.24
					c-0.238,0.034-0.477,0.154-0.715,0.361c-0.282,0.235-0.423,0.428-0.423,0.58c0,0.108-0.358,1.048-1.074,2.818
					c-0.932,2.322-1.398,3.829-1.398,4.523c0,0.13,0.021,0.301,0.065,0.511C152.872,38.109,153.257,38.661,153.918,39.176z"/>
				<path style="fill:#DD4A4A;" d="M150.812,69.048c-0.104,0.063-0.189,0.111-0.284,0.166c0.049,0.08,0.089,0.177,0.144,0.246
					c0.26,0.332,0.51,0.482,0.748,0.448c0.26-0.036,0.835-0.324,1.724-0.861c1.366-0.82,3.317-2.911,5.854-6.271
					c2.537-3.359,4.965-7.078,7.286-11.155c0.694-1.225,1.528-2.708,2.504-4.45c0.072-0.139,0.161-0.252,0.256-0.352
					c-0.102-0.064-0.221-0.127-0.376-0.186c-0.456-0.175-0.868-0.236-1.236-0.184c-0.434,0.061-0.759,0.302-0.976,0.722
					c-0.976,1.742-1.81,3.225-2.504,4.45c-2.32,4.077-4.749,7.796-7.286,11.155C154.13,66.137,152.178,68.227,150.812,69.048z"/>
				<path style="fill:#DD4A4A;" d="M147.11,70.465c-0.77-0.727-1.328-1.846-1.675-3.359c-0.195-0.84-0.293-2.279-0.293-4.318
					c0-1.518,0.065-2.828,0.195-3.93c0.217-1.787,0.683-3.896,1.399-6.327c0.715-2.432,1.485-4.54,2.309-6.326
					c0.434-0.928,0.911-1.83,1.431-2.706c0.521-0.875,0.878-1.381,1.074-1.517c0.161-0.111,0.383-0.189,0.633-0.253
					c-0.645-0.145-1.297-0.177-1.956-0.084c-0.434,0.061-0.77,0.173-1.008,0.337c-0.195,0.136-0.553,0.642-1.073,1.517
					c-0.52,0.876-0.997,1.778-1.431,2.706c-0.824,1.785-1.593,3.894-2.309,6.326c-0.715,2.431-1.182,4.541-1.399,6.327
					c-0.13,1.103-0.195,2.413-0.195,3.93c0,2.039,0.098,3.478,0.293,4.318c0.347,1.513,0.905,2.632,1.675,3.359
					c0.77,0.727,1.848,1.123,3.237,1.188c0.325,0.02,0.672,0.003,1.041-0.049c0.097-0.014,0.2-0.045,0.299-0.064
					C148.434,71.366,147.685,71.008,147.11,70.465z"/>
			</g>
			<g>
				<path style="fill:#DD4A4A;" d="M177.407,68.827c0.195-0.027,0.347-0.071,0.455-0.129c0.889-0.407,2.283-2.186,4.18-5.336
					c1.897-3.151,2.846-5.019,2.846-5.604c0-0.043-0.022-0.062-0.065-0.056c-0.043,0.006-0.737,0.169-2.082,0.488
					c-0.108,0.025-0.201,0.051-0.306,0.077c-0.3,0.875-1.201,2.564-2.725,5.096c-1.471,2.443-2.636,4.051-3.501,4.844
					c0.031,0.047,0.058,0.099,0.092,0.142C176.605,68.728,176.973,68.887,177.407,68.827z"/>
				<path style="fill:#DD4A4A;" d="M186.199,44.886c0,0.39-0.011,0.684-0.033,0.883c-0.065,0.768-0.309,2.06-0.732,3.876
					c-0.423,1.815-0.807,3.192-1.154,4.13c-0.282,0.798-0.564,1.272-0.846,1.42c-0.455,0.237-2.071,0.66-4.846,1.266
					c-0.697,0.156-1.296,0.311-1.825,0.465c-0.305,0.58-0.462,0.939-0.462,1.063v0.032l0.033-0.004
					c0.108-0.015,0.499-0.189,1.171-0.522c0.716-0.339,1.854-0.683,3.415-1.033c2.775-0.607,4.391-1.029,4.846-1.266
					c0.282-0.148,0.564-0.621,0.845-1.42c0.347-0.938,0.732-2.315,1.155-4.13c0.423-1.816,0.667-3.108,0.732-3.876
					c0.022-0.198,0.033-0.492,0.033-0.883c0-0.499-0.033-0.808-0.098-0.929c-0.087-0.205-0.184-0.3-0.293-0.284
					c-0.022,0.003-0.239,0.11-0.651,0.319c-0.414,0.223-0.848,0.515-1.292,0.842C186.198,44.852,186.199,44.867,186.199,44.886z"/>
				<path style="fill:#DD4A4A;" d="M194.093,50.707v0.13l0.033-0.005c0.151-0.021,0.743-0.408,1.772-1.16
					c1.03-0.752,1.989-1.493,2.878-2.226c1.258-1.045,2.451-2.209,3.578-3.495c0.539-0.615,0.965-1.087,1.29-1.433
					c-0.142-0.139-0.354-0.278-0.646-0.417c-0.423-0.201-0.743-0.286-0.96-0.255c-0.13,0.018-0.802,0.719-2.017,2.104
					c-1.127,1.286-2.32,2.451-3.578,3.495c-0.694,0.572-1.444,1.151-2.225,1.735C194.135,49.79,194.093,50.3,194.093,50.707z"/>
				<path style="fill:#DD4A4A;" d="M174.154,69.641c-0.368-0.295-0.694-0.672-0.976-1.132c-0.282-0.459-0.434-0.85-0.456-1.172
					c0-0.087-0.011-0.129-0.032-0.126c-0.076,0.011-0.37,0.831-0.872,2.425c0.001,0.001,0.003,0.003,0.004,0.004
					c1.128,0.925,2.722,1.298,4.781,1.117l0.317-0.045C175.814,70.575,174.878,70.235,174.154,69.641z"/>
				<path style="fill:#DD4A4A;" d="M162.933,94.279c-0.26-0.94-0.39-3.632-0.39-8.076c0-2.06,0.022-3.57,0.065-4.53
					c0.282-7.824,0.802-14.045,1.561-18.661c0.759-4.704,1.854-9.075,3.285-13.114c1.431-4.039,2.938-7.016,4.521-8.93l0.781-0.988
					l0.116-0.007c-0.408-0.06-0.821-0.091-1.244-0.065l-1.204,0.072l-0.781,0.988c-1.583,1.914-3.09,4.89-4.521,8.93
					c-1.431,4.039-2.526,8.41-3.285,13.114c-0.759,4.617-1.279,10.837-1.562,18.661c-0.043,0.96-0.065,2.47-0.065,4.53
					c0,4.445,0.13,7.137,0.39,8.076c0.087,0.291,0.347,0.498,0.781,0.622c0.434,0.124,0.911,0.149,1.431,0.076
					c0.251-0.035,0.48-0.087,0.687-0.154C163.197,94.696,163.004,94.517,162.933,94.279z"/>
				<path style="fill:#DD4A4A;" d="M173.634,53.712c-0.304,0.845-0.721,2.134-1.252,3.867c-0.531,1.733-0.797,2.676-0.797,2.828
					c0.065-0.009,0.358-0.636,0.878-1.879c1.605-3.803,3.486-7.234,5.643-10.291c2.158-3.056,4.19-5.196,6.099-6.418
					c0.924-0.582,1.738-0.926,2.448-1.05c-0.667-0.12-1.339-0.138-2.015-0.054l-0.195,0.027c-0.737,0.104-1.594,0.463-2.57,1.077
					c-1.764,1.13-3.636,3.054-5.613,5.752C175.207,49.779,174.327,51.831,173.634,53.712z"/>
			</g>
			<g>
				<path style="fill:#DD4A4A;" d="M206.201,55.704c0.278-0.039,0.485-0.106,0.658-0.187l-0.343-0.083v-1.463
					c0-1.865,0.52-5.755,1.561-11.669c0.65-3.669,1.654-8.846,3.009-15.53c1.355-6.685,2.239-10.848,2.651-12.488
					c0.477-1.91,1.003-3.735,1.578-5.474s0.949-2.676,1.122-2.809c0.068-0.043,0.141-0.073,0.213-0.106
					c-0.685-0.167-1.302-0.231-1.829-0.157c-0.26,0.036-0.499,0.124-0.716,0.263c-0.173,0.133-0.547,1.069-1.122,2.809
					c-0.575,1.74-1.101,3.564-1.578,5.474c-0.412,1.641-1.295,5.804-2.651,12.488c-1.355,6.685-2.358,11.861-3.009,15.53
					c-1.041,5.914-1.561,9.804-1.561,11.669v1.463l0.683,0.165C205.279,55.735,205.724,55.771,206.201,55.704z"/>
				<path style="fill:#DD4A4A;" d="M205.28,64.422c0-0.716,0.011-1.324,0.033-1.826l0.13-3.044l0.683-0.454
					c0.259-0.166,0.572-0.28,0.908-0.371c-0.035-0.012-0.062-0.026-0.1-0.037c-0.509-0.145-1.079-0.174-1.707-0.086
					c-0.564,0.079-1.041,0.244-1.431,0.494l-0.683,0.454l-0.13,3.044c-0.021,0.501-0.033,1.11-0.033,1.826
					c0,0.846,0.092,1.342,0.277,1.49c0.184,0.147,0.634,0.171,1.35,0.071c0.346-0.049,0.631-0.126,0.878-0.222
					C205.339,65.527,205.28,65.086,205.28,64.422z"/>
			</g>
		</g>
	</g>
</g>
</svg>
